<?xml version="1.0" standalone="no"?>
<!DOCTYPE svg PUBLIC "-//W3C//DTD SVG 20010904//EN"
 "http://www.w3.org/TR/2001/REC-SVG-20010904/DTD/svg10.dtd">
<svg version="1.0" xmlns="http://www.w3.org/2000/svg"
 width="410.000000pt" height="410.000000pt" viewBox="0 0 410.000000 410.000000"
 preserveAspectRatio="xMidYMid meet">

<g transform="translate(0.000000,410.000000) scale(0.100000,-0.100000)"
fill="#000000" stroke="none">
<path d="M1450 4015 c-80 -7 -147 -13 -150 -14 -3 -1 4 -6 15 -11 20 -9 20 -9
0 -9 -12 -1 -25 -5 -30 -10 -6 -5 -41 -12 -79 -16 -55 -6 -67 -5 -61 5 6 10 1
11 -21 6 -16 -5 -77 -9 -137 -11 -59 -2 -132 -11 -162 -19 -75 -22 -93 -51
-112 -179 -9 -56 -17 -107 -19 -114 -1 -6 -31 -25 -66 -42 -39 -19 -74 -45
-90 -68 -25 -32 -28 -45 -28 -113 0 -71 -3 -80 -30 -115 -16 -21 -30 -48 -30
-61 0 -30 52 -70 121 -92 64 -20 62 -14 84 -222 34 -307 95 -768 125 -931 10
-59 37 -248 59 -420 23 -173 52 -404 67 -514 14 -110 37 -263 50 -340 14 -77
33 -188 43 -247 22 -124 43 -164 109 -210 98 -68 243 -113 479 -150 134 -21
181 -23 503 -23 240 0 384 5 445 14 263 38 414 104 488 213 32 49 45 92 57
196 5 42 20 116 34 164 27 92 46 216 97 618 17 135 50 382 74 550 25 168 65
460 90 650 47 352 86 584 104 619 6 10 32 26 58 35 89 31 111 72 74 144 -12
24 -20 68 -24 125 -6 106 -13 116 -114 163 -39 18 -74 37 -77 43 -3 5 -9 51
-12 103 -7 113 -19 151 -45 143 -11 -4 -19 -2 -19 3 0 6 5 12 12 14 27 9 -66
38 -172 53 -63 8 -152 21 -198 27 -45 6 -85 9 -88 5 -3 -3 24 -8 60 -12 37 -4
69 -11 72 -16 10 -18 -44 -19 -130 -4 -109 19 -116 19 -116 0 0 -11 -11 -15
-40 -15 -22 0 -40 -4 -40 -10 0 -5 -4 -10 -10 -10 -5 0 -10 7 -10 15 0 10 -10
15 -34 15 -42 0 -136 21 -136 30 0 9 -3 9 -157 15 -86 3 -133 2 -133 -5 0 -14
-33 -13 -48 2 -9 9 -12 9 -12 0 0 -18 17 -22 96 -27 38 -1 77 -4 87 -4 9 -1
17 -5 17 -11 0 -5 -29 -8 -70 -6 -38 2 -70 0 -70 -3 0 -4 21 -13 48 -20 26 -7
41 -15 35 -18 -24 -9 -13 -23 19 -23 34 0 31 -12 -5 -16 -133 -18 -274 -23
-332 -13 -27 5 -79 10 -115 12 -73 2 -82 17 -20 32 31 8 38 13 29 22 -6 6 -18
9 -25 6 -8 -3 -14 -1 -14 5 0 6 -8 8 -18 5 -10 -2 -24 2 -31 11 -10 12 -9 15
6 16 145 10 193 10 193 1 0 -5 -5 -13 -11 -17 -19 -11 12 -22 49 -17 25 4 30
8 22 18 -6 7 -9 18 -8 25 4 17 -49 32 -56 17 -3 -8 -8 -8 -14 2 -8 12 -35 14
-134 11 -140 -4 -212 -4 -248 0 l-25 2 25 8 c14 4 49 8 78 9 33 1 51 5 47 11
-7 12 -51 11 -245 -5z m-73 -21 c-3 -3 -12 -4 -19 -1 -8 3 -5 6 6 6 11 1 17
-2 13 -5z m143 2 c0 -11 -19 -15 -25 -6 -3 5 1 10 9 10 9 0 16 -2 16 -4z
m1233 -93 c-7 -2 -21 -2 -30 0 -10 3 -4 5 12 5 17 0 24 -2 18 -5z m-363 -43
c0 -5 -2 -10 -4 -10 -3 0 -8 5 -11 10 -3 6 -1 10 4 10 6 0 11 -4 11 -10z
m-1430 -34 c47 -8 126 -18 175 -21 122 -7 149 -13 135 -30 -11 -13 11 -17 160
-29 51 -4 59 -3 35 4 -16 6 -56 12 -88 13 -31 2 -60 7 -65 12 -4 4 70 4 163 0
94 -4 244 -10 335 -14 170 -8 287 -7 617 4 184 7 249 1 193 -17 -14 -4 27 -5
90 -2 63 3 119 9 124 15 6 5 0 9 -17 9 -15 0 -27 4 -27 8 0 4 16 6 35 4 19 -2
32 -8 29 -13 -3 -5 2 -9 11 -9 9 0 14 4 11 9 -8 12 153 6 166 -7 8 -8 8 -15
-2 -27 -7 -8 -8 -15 -3 -15 19 0 9 -29 -14 -39 -28 -13 -28 -17 -3 -76 11 -26
20 -57 20 -70 0 -12 7 -28 15 -35 39 -32 6 -45 -162 -64 -204 -23 -260 -25
-280 -10 -13 10 -14 13 -4 14 8 0 19 7 26 16 13 19 8 64 -8 64 -6 0 -1 9 11
20 12 11 26 20 32 20 24 0 7 17 -27 27 l-38 10 37 16 c21 10 51 17 67 17 17 0
31 6 35 16 3 9 12 14 20 11 8 -3 17 -3 20 1 4 3 19 6 34 6 15 1 27 6 27 11 0
6 -7 9 -15 8 -8 -1 -44 -4 -80 -8 -36 -3 -77 -8 -92 -11 -14 -3 -29 -1 -32 5
-4 6 -20 8 -38 4 -28 -6 -31 -4 -26 15 4 12 2 22 -3 22 -19 0 -8 19 14 22 12
3 -45 2 -128 0 -82 -2 -155 -9 -162 -14 -15 -12 -238 -28 -291 -21 -29 4 -39
9 -35 19 4 11 -15 14 -98 14 -57 0 -153 2 -214 4 -95 4 -107 2 -91 -10 18 -13
18 -14 -8 -24 -15 -5 -63 -10 -106 -10 -43 0 -81 -4 -84 -9 -4 -5 4 -7 15 -4
20 5 21 3 15 -20 -5 -20 -3 -27 9 -27 8 0 15 -4 15 -9 0 -5 10 -11 23 -15 17
-5 19 -8 8 -15 -8 -5 -9 -11 -3 -15 7 -4 6 -15 -3 -33 -8 -15 -12 -30 -9 -35
3 -4 0 -8 -7 -8 -7 0 -3 -9 9 -20 12 -12 22 -25 22 -30 0 -5 7 -7 15 -4 8 4
15 2 15 -4 0 -5 19 -13 43 -17 l42 -8 -40 -6 c-31 -5 -19 -8 60 -14 129 -9
318 -8 285 3 -24 7 -24 7 10 17 40 12 56 7 40 -12 -8 -9 -8 -15 0 -20 5 -3 10
0 11 7 0 10 2 10 6 1 3 -9 26 -13 64 -13 37 0 58 -4 54 -10 -3 -6 1 -7 9 -4
10 4 16 1 16 -7 0 -10 3 -10 12 -1 16 16 88 16 89 0 0 -10 2 -10 6 0 4 10 8
10 19 1 12 -10 13 -8 8 7 -6 17 -4 16 18 -3 13 -13 28 -23 33 -23 5 0 0 7 -11
15 -18 14 -18 14 8 15 15 0 29 -4 32 -9 3 -4 21 -7 41 -5 19 1 33 -2 30 -7 -4
-5 2 -8 12 -7 34 3 53 -2 53 -13 0 -7 -15 -10 -40 -7 -22 2 -40 0 -40 -4 0 -3
-73 -6 -162 -6 -251 1 -326 -2 -303 -12 16 -7 17 -9 3 -9 -9 -1 -19 3 -22 7
-3 5 -66 12 -141 15 -74 4 -179 14 -232 22 -54 8 -124 17 -156 21 -67 6 -70
13 -9 16 23 1 47 7 53 15 6 7 21 13 32 13 16 0 18 3 9 12 -7 7 -76 15 -179 20
-114 6 -178 13 -200 24 -30 14 -33 19 -33 60 0 25 6 57 13 72 19 38 20 87 2
102 -20 17 -19 30 3 30 14 1 12 5 -10 24 -22 19 -24 25 -12 30 23 9 7 26 -24
26 -40 0 -182 33 -182 43 0 9 40 5 160 -17z m2274 -6 c-11 -11 -143 -27 -133
-16 7 7 82 23 119 25 16 1 21 -2 14 -9z m-147 -26 c-3 -3 -12 -4 -19 -1 -8 3
-5 6 6 6 11 1 17 -2 13 -5z m-960 -129 c10 -8 13 -15 7 -15 -20 0 -11 -50 9
-50 20 0 35 -28 21 -39 -5 -3 -9 -19 -9 -36 0 -26 -4 -30 -28 -33 -16 -2 -36
0 -45 4 -10 4 -21 6 -25 5 -5 -1 -11 7 -13 17 -3 10 -15 22 -27 27 -22 10 -37
55 -18 55 6 0 8 6 5 14 -3 8 -23 17 -45 21 -51 9 -50 22 4 32 68 14 144 13
164 -2z m1361 -107 c-5 -15 -23 -11 -26 6 -2 11 2 14 13 10 9 -4 14 -11 13
-16z m-2877 -52 c-10 -12 3 -19 76 -45 88 -31 88 -31 34 -26 -29 4 -73 15 -97
26 -24 12 -48 18 -54 14 -5 -3 -10 -1 -10 4 0 6 5 11 11 11 6 0 17 7 25 15 19
19 30 20 15 1z m1369 -36 c0 -5 -5 -10 -11 -10 -5 0 -7 5 -4 10 3 6 8 10 11
10 2 0 4 -4 4 -10z m132 -12 c-9 -9 -15 -9 -24 0 -9 9 -7 12 12 12 19 0 21 -3
12 -12z m28 -49 c0 -5 -7 -9 -15 -9 -15 0 -20 12 -9 23 8 8 24 -1 24 -14z
m-165 -8 c-3 -6 -11 -8 -17 -5 -6 4 -5 9 3 15 16 10 23 4 14 -10z m1332 13
c-3 -3 -12 -4 -19 -1 -8 3 -5 6 6 6 11 1 17 -2 13 -5z m-2171 -64 c168 -12
204 -18 204 -36 0 -8 7 -14 15 -14 8 0 15 4 15 9 0 15 38 19 56 6 16 -11 16
-13 -6 -20 -49 -15 -262 -7 -368 14 -57 12 -112 21 -122 21 -39 0 -120 22
-114 31 5 9 74 7 320 -11z m1730 2 c-16 -2 -32 0 -37 5 -5 5 7 7 29 4 34 -5
35 -6 8 -9z m-79 -3 c-16 -9 -110 -14 -187 -10 -81 4 -15 16 96 17 64 1 101
-2 91 -7z m-297 -19 c0 -5 -2 -10 -4 -10 -3 0 -8 5 -11 10 -3 6 -1 10 4 10 6
0 11 -4 11 -10z m-1008 -32 c-9 -9 -15 -9 -24 0 -9 9 -7 12 12 12 19 0 21 -3
12 -12z m363 -8 c4 -6 -7 -10 -27 -9 -31 1 -32 1 -8 9 14 4 26 8 27 9 1 1 5
-3 8 -9z m484 -11 c-17 -11 -110 -12 -136 -2 -14 6 -10 9 17 13 52 7 136 0
119 -11z m-1199 -69 c20 0 50 -10 70 -23 19 -13 41 -22 48 -20 6 3 12 0 12 -6
0 -6 7 -11 15 -11 19 0 65 -21 65 -31 0 -13 -29 -18 -58 -10 -23 7 -39 4 -71
-15 -32 -18 -53 -22 -84 -19 -23 2 -81 8 -128 13 -49 5 -95 15 -108 24 l-23
16 22 12 c12 6 19 14 16 17 -13 14 17 43 52 49 20 4 43 10 51 14 7 4 30 4 50
-1 20 -5 52 -9 71 -9z m1999 4 c2 -2 -7 -4 -20 -5 -22 -1 -21 -1 6 -11 17 -5
37 -12 45 -15 8 -3 21 -7 28 -9 24 -5 24 -12 3 -24 -12 -6 -21 -17 -21 -25 0
-15 -20 -18 -135 -19 -27 -1 -54 -4 -60 -7 -13 -8 -152 -24 -185 -21 -46 4
-130 25 -130 33 0 12 22 23 50 27 14 1 37 7 51 13 15 6 37 12 50 13 58 7 116
19 133 28 10 6 34 10 52 10 19 0 34 4 34 8 0 16 82 19 99 4z m-2274 -64 c3 -5
-1 -10 -10 -10 -9 0 -13 5 -10 10 3 6 8 10 10 10 2 0 7 -4 10 -10z m545 -24
c0 -9 -40 -13 -46 -5 -3 5 6 9 20 9 14 0 26 -2 26 -4z m1889 -10 c-11 -9 -90
-16 -84 -6 3 5 25 10 47 10 23 0 39 -2 37 -4z m-2023 -46 c14 0 23 -4 20 -8
-7 -11 -76 -2 -76 10 0 6 7 7 16 4 9 -3 27 -6 40 -6z m798 -24 c279 0 500 -3
490 -7 -30 -10 -152 -14 -524 -14 -344 0 -583 11 -545 26 11 4 31 4 45 1 14
-4 254 -6 534 -6z m-991 -1057 c21 -26 23 -85 2 -93 -8 -3 -26 -1 -39 4 -29
11 -36 5 -37 -34 -2 -47 -17 46 -18 110 l-1 52 38 -9 c20 -4 45 -18 55 -30z
m2002 -61 c12 -68 12 -88 0 -76 -3 2 -7 22 -10 44 -2 21 -8 57 -11 79 -4 22
-3 37 1 33 4 -4 14 -40 20 -80z m-95 68 c0 -3 -4 -8 -10 -11 -5 -3 -10 -1 -10
4 0 6 5 11 10 11 6 0 10 -2 10 -4z m-90 -16 c0 -5 -4 -10 -10 -10 -5 0 -10 5
-10 10 0 6 5 10 10 10 6 0 10 -4 10 -10z m-1650 -18 c26 -13 36 -26 42 -52 9
-46 -9 -64 -65 -65 -40 0 -42 -1 -42 -32 0 -37 -11 -53 -18 -26 -3 10 -8 57
-12 106 l-7 87 34 0 c18 0 49 -8 68 -18z m-317 -32 c4 -15 0 -16 -29 -7 -42
13 -44 24 -5 24 19 0 31 -6 34 -17z m557 -4 c13 -6 29 -24 35 -40 8 -24 6 -31
-17 -51 l-26 -22 29 -47 c20 -31 25 -46 16 -46 -8 0 -28 23 -45 50 -26 42 -36
50 -62 50 -29 0 -30 -2 -30 -45 0 -25 -4 -45 -8 -45 -10 0 -28 142 -24 187 l3
32 52 -6 c29 -3 63 -11 77 -17z m1400 -12 c0 -19 -4 -33 -8 -30 -8 5 -4 66 4
66 2 0 4 -16 4 -36z m-242 -11 c7 -10 15 -28 18 -39 9 -33 -14 -103 -39 -118
-33 -21 -67 -29 -67 -17 0 6 6 11 14 11 7 0 25 12 40 26 51 52 28 144 -38 148
-14 0 -26 5 -26 10 0 16 84 -2 98 -21z m-308 -23 c0 -15 -16 -12 -30 5 -7 8
-19 15 -27 15 -8 0 -11 4 -8 10 7 12 65 -15 65 -30z m170 17 c-30 -26 -52 -71
-44 -91 3 -8 1 -17 -5 -21 -11 -6 -15 11 -11 55 2 29 47 80 69 80 12 -1 9 -7
-9 -23z m-730 3 c0 -12 -20 -12 -75 -1 -40 9 -39 9 18 10 32 0 57 -3 57 -9z
m267 -17 c7 -9 10 -19 7 -22 -3 -3 -11 2 -18 11 -7 10 -24 22 -37 28 -22 10
-22 10 6 5 17 -3 36 -13 42 -22z m188 13 c-16 -7 -32 -11 -35 -9 -8 7 24 23
45 22 15 0 13 -3 -10 -13z m733 -53 c15 -28 15 -33 -1 -33 -12 0 -47 68 -47
91 0 12 26 -20 48 -58z m-1318 5 c0 -16 3 -27 8 -27 29 5 112 -3 112 -10 0 -5
-26 -8 -57 -8 l-58 2 0 -48 c0 -31 -4 -47 -12 -47 -14 0 -15 1 -17 85 -2 76 3
112 15 93 5 -7 9 -25 9 -40z m282 32 c-23 -19 -23 -20 -5 -46 17 -27 17 -27
-5 -15 -27 14 -29 56 -4 70 29 17 38 11 14 -9z m268 -30 c0 -11 -4 -20 -10
-20 -5 0 -10 9 -10 20 0 11 5 20 10 20 6 0 10 -9 10 -20z m690 -19 c0 -17 -4
-33 -10 -36 -6 -4 -10 8 -10 29 0 20 5 36 10 36 6 0 10 -13 10 -29z m-572 -26
c38 -16 43 -52 12 -80 -20 -18 -110 -34 -110 -19 0 5 18 9 40 9 49 0 80 26 64
53 -6 9 -32 24 -57 33 -26 8 -50 19 -54 24 -11 11 64 -4 105 -20z m-258 -20
c16 -10 11 -51 -7 -67 -25 -21 -67 -30 -95 -19 -20 9 -18 10 18 10 80 2 96 71
20 85 -20 4 -38 10 -40 15 -5 8 86 -13 104 -24z m422 -26 c2 -6 19 -14 38 -18
27 -6 31 -10 18 -15 -19 -9 -69 13 -76 32 -2 6 1 12 6 12 6 0 12 -5 14 -11z
m-284 -29 c7 -11 8 -20 2 -20 -5 0 -14 9 -20 20 -6 11 -7 20 -3 20 5 0 14 -9
21 -20z m-278 -5 c7 -8 8 -15 2 -15 -5 0 -15 7 -22 15 -7 8 -8 15 -2 15 5 0
15 -7 22 -15z m-940 -21 c14 -8 17 -13 8 -10 -10 3 -20 0 -24 -6 -4 -7 -9 -6
-15 3 -20 32 -8 37 31 13z m743 9 c-7 -2 -21 -2 -30 0 -10 3 -4 5 12 5 17 0
24 -2 18 -5z m67 -3 c0 -5 -6 -10 -14 -10 -8 0 -18 5 -21 10 -3 6 3 10 14 10
12 0 21 -4 21 -10z m-811 -80 c5 0 12 8 14 18 3 12 5 11 6 -6 2 -35 -43 -27
-46 8 -3 25 -3 25 7 3 5 -13 14 -23 19 -23z m171 28 c0 -15 -16 -16 -35 -2
-18 13 -18 14 8 12 15 -1 27 -6 27 -10z m1747 -37 c2 -22 -22 -47 -31 -33 -8
13 5 52 18 52 6 0 12 -9 13 -19z m-1737 -1 c13 -8 13 -10 -2 -10 -9 0 -20 -9
-23 -20 -8 -27 -25 -26 -18 1 4 12 0 25 -8 30 -10 6 -7 9 11 9 14 0 32 -5 40
-10z m189 -22 c24 -11 24 -12 6 -15 -12 -2 -26 -17 -32 -33 -6 -17 -17 -30
-23 -30 -8 0 -9 7 -5 18 17 41 16 49 -7 57 l-23 8 23 4 c12 2 22 10 23 16 0 8
2 7 6 -1 3 -7 17 -18 32 -24z m1501 15 c0 -10 -4 -24 -9 -32 -12 -19 -24 3
-16 29 8 25 25 26 25 3z m220 1 c0 -7 -40 -44 -47 -44 -2 0 4 11 13 25 15 23
34 33 34 19z m-390 -14 c0 -5 -7 -10 -15 -10 -8 0 -15 -4 -15 -10 0 -5 9 -10
20 -10 11 0 20 -4 20 -10 0 -5 -8 -10 -18 -10 -11 0 -24 -11 -30 -25 -6 -14
-17 -25 -24 -25 -9 0 -9 3 0 12 20 20 14 37 -10 32 -23 -5 -23 -4 -2 5 28 12
40 31 20 31 -27 0 -17 18 12 23 15 2 30 5 35 6 4 0 7 -3 7 -9z m-960 -40 c-12
-23 -22 -27 -14 -6 4 11 -4 16 -28 19 -29 3 -28 4 10 5 40 2 42 1 32 -18z
m440 -4 c0 -7 10 -18 23 -24 20 -10 20 -11 2 -9 -14 1 -21 -5 -23 -20 -6 -43
-22 -23 -22 28 0 31 4 48 10 44 6 -3 10 -12 10 -19z m235 14 c-3 -5 -13 -10
-21 -10 -8 0 -12 5 -9 10 3 6 13 10 21 10 8 0 12 -4 9 -10z m65 0 c0 -12 -8
-12 -35 0 -18 8 -17 9 8 9 15 1 27 -3 27 -9z m-492 -15 c9 -7 -40 -85 -53 -85
-9 0 -6 8 10 25 36 35 33 55 -10 55 -19 0 -35 -5 -35 -11 0 -5 -5 -7 -11 -3
-24 15 29 35 71 26 14 -3 26 -6 28 -7z m898 -23 c-18 -16 -18 -16 -6 6 6 13
14 21 18 18 3 -4 -2 -14 -12 -24z m-1198 -33 c-24 -16 -27 -9 -10 24 16 31 17
31 20 8 2 -13 -2 -28 -10 -32z m767 31 c-9 -10 -15 -26 -12 -35 8 -20 -2 -19
-25 2 -23 21 -23 36 1 28 10 -3 24 1 31 10 7 8 15 15 18 15 3 0 -3 -9 -13 -20z"/>
<path d="M1095 3780 c3 -5 8 -10 11 -10 2 0 4 5 4 10 0 6 -5 10 -11 10 -5 0
-7 -4 -4 -10z"/>
<path d="M1290 3695 c0 -8 9 -15 20 -15 11 0 20 7 20 15 0 8 -9 15 -20 15 -11
0 -20 -7 -20 -15z"/>
<path d="M2665 3480 c3 -5 10 -10 16 -10 5 0 9 5 9 10 0 6 -7 10 -16 10 -8 0
-12 -4 -9 -10z"/>
<path d="M1448 3403 c6 -2 18 -2 25 0 6 3 1 5 -13 5 -14 0 -19 -2 -12 -5z"/>
<path d="M2138 3343 c7 -3 16 -2 19 1 4 3 -2 6 -13 5 -11 0 -14 -3 -6 -6z"/>
<path d="M2078 3618 c9 -9 15 -9 24 0 9 9 7 12 -12 12 -19 0 -21 -3 -12 -12z"/>
<path d="M2040 3610 c0 -5 7 -10 16 -10 8 0 12 5 9 10 -3 6 -10 10 -16 10 -5
0 -9 -4 -9 -10z"/>
<path d="M2118 3563 c7 -3 16 -2 19 1 4 3 -2 6 -13 5 -11 0 -14 -3 -6 -6z"/>
<path d="M996 1973 c10 -50 13 -53 44 -53 25 0 30 4 30 24 0 31 -25 56 -56 56
-21 0 -24 -3 -18 -27z"/>
<path d="M1170 1922 c0 -38 2 -40 35 -44 21 -2 40 1 46 8 15 19 2 52 -24 59
-60 17 -57 19 -57 -23z"/>
<path d="M1379 1908 c-1 -26 2 -62 6 -66 1 -2 21 -5 43 -8 38 -4 72 12 72 36
0 24 -39 53 -78 57 -39 4 -42 3 -43 -19z"/>
<path d="M1757 4023 c18 -2 50 -2 70 0 21 2 7 4 -32 4 -38 0 -55 -2 -38 -4z"/>
<path d="M2607 3999 c5 -3 42 -9 83 -12 43 -4 66 -2 55 2 -25 11 -148 20 -138
10z"/>
<path d="M2028 3993 c6 -2 12 -11 12 -19 0 -9 10 -14 28 -14 l27 0 -33 20
c-18 11 -36 20 -40 19 -4 0 -1 -3 6 -6z"/>
<path d="M1928 3893 c7 -3 16 -2 19 1 4 3 -2 6 -13 5 -11 0 -14 -3 -6 -6z"/>
</g>
</svg>
